%TF.GenerationSoftware,KiCad,Pcbnew,9.0.7*%
%TF.CreationDate,2026-02-04T16:17:26-05:00*%
%TF.ProjectId,test2,74657374-322e-46b6-9963-61645f706362,rev?*%
%TF.SameCoordinates,Original*%
%TF.FileFunction,Legend,Top*%
%TF.FilePolarity,Positive*%
%FSLAX46Y46*%
G04 Gerber Fmt 4.6, Leading zero omitted, Abs format (unit mm)*
G04 Created by KiCad (PCBNEW 9.0.7) date 2026-02-04 16:17:26*
%MOMM*%
%LPD*%
G01*
G04 APERTURE LIST*
%ADD10C,0.150000*%
%ADD11C,0.120000*%
G04 APERTURE END LIST*
D10*
X137626666Y-78660819D02*
X137293333Y-78184628D01*
X137055238Y-78660819D02*
X137055238Y-77660819D01*
X137055238Y-77660819D02*
X137436190Y-77660819D01*
X137436190Y-77660819D02*
X137531428Y-77708438D01*
X137531428Y-77708438D02*
X137579047Y-77756057D01*
X137579047Y-77756057D02*
X137626666Y-77851295D01*
X137626666Y-77851295D02*
X137626666Y-77994152D01*
X137626666Y-77994152D02*
X137579047Y-78089390D01*
X137579047Y-78089390D02*
X137531428Y-78137009D01*
X137531428Y-78137009D02*
X137436190Y-78184628D01*
X137436190Y-78184628D02*
X137055238Y-78184628D01*
X138055238Y-78137009D02*
X138388571Y-78137009D01*
X138531428Y-78660819D02*
X138055238Y-78660819D01*
X138055238Y-78660819D02*
X138055238Y-77660819D01*
X138055238Y-77660819D02*
X138531428Y-77660819D01*
X139293333Y-78137009D02*
X138960000Y-78137009D01*
X138960000Y-78660819D02*
X138960000Y-77660819D01*
X138960000Y-77660819D02*
X139436190Y-77660819D01*
X139960000Y-77660819D02*
X139960000Y-77898914D01*
X139721905Y-77803676D02*
X139960000Y-77898914D01*
X139960000Y-77898914D02*
X140198095Y-77803676D01*
X139817143Y-78089390D02*
X139960000Y-77898914D01*
X139960000Y-77898914D02*
X140102857Y-78089390D01*
X140721905Y-77660819D02*
X140721905Y-77898914D01*
X140483810Y-77803676D02*
X140721905Y-77898914D01*
X140721905Y-77898914D02*
X140960000Y-77803676D01*
X140579048Y-78089390D02*
X140721905Y-77898914D01*
X140721905Y-77898914D02*
X140864762Y-78089390D01*
D11*
%TO.C,REF\u002A\u002A*%
X131975000Y-79095000D02*
X145945000Y-79095000D01*
X131975000Y-93065000D02*
X131975000Y-79095000D01*
X145945000Y-79095000D02*
X145945000Y-93065000D01*
X145945000Y-93065000D02*
X131975000Y-93065000D01*
%TD*%
M02*
