%TF.GenerationSoftware,KiCad,Pcbnew,9.0.7*%
%TF.CreationDate,2026-02-04T16:17:57-05:00*%
%TF.ProjectId,test2,74657374-322e-46b6-9963-61645f706362,rev?*%
%TF.SameCoordinates,Original*%
%TF.FileFunction,Drillmap*%
%TF.FilePolarity,Positive*%
%FSLAX45Y45*%
G04 Gerber Fmt 4.5, Leading zero omitted, Abs format (unit mm)*
G04 Created by KiCad (PCBNEW 9.0.7) date 2026-02-04 16:17:57*
%MOMM*%
%LPD*%
G01*
G04 APERTURE LIST*
%ADD10C,0.200000*%
%ADD11C,0.170000*%
%ADD12C,0.400000*%
G04 APERTURE END LIST*
D10*
D11*
X13303000Y-8523000D02*
X13473000Y-8693000D01*
X13473000Y-8523000D02*
X13303000Y-8693000D01*
X14319000Y-8523000D02*
X14489000Y-8693000D01*
X14489000Y-8523000D02*
X14319000Y-8693000D01*
D12*
X14096000Y-8608000D02*
G75*
G02*
X13696000Y-8608000I-200000J0D01*
G01*
X13696000Y-8608000D02*
G75*
G02*
X14096000Y-8608000I200000J0D01*
G01*
D10*
X260777Y-311484D02*
X260777Y-111484D01*
X260777Y-111484D02*
X308396Y-111484D01*
X308396Y-111484D02*
X336967Y-121008D01*
X336967Y-121008D02*
X356015Y-140055D01*
X356015Y-140055D02*
X365539Y-159103D01*
X365539Y-159103D02*
X375062Y-197198D01*
X375062Y-197198D02*
X375062Y-225769D01*
X375062Y-225769D02*
X365539Y-263865D01*
X365539Y-263865D02*
X356015Y-282912D01*
X356015Y-282912D02*
X336967Y-301960D01*
X336967Y-301960D02*
X308396Y-311484D01*
X308396Y-311484D02*
X260777Y-311484D01*
X460777Y-311484D02*
X460777Y-178150D01*
X460777Y-216246D02*
X470301Y-197198D01*
X470301Y-197198D02*
X479824Y-187674D01*
X479824Y-187674D02*
X498872Y-178150D01*
X498872Y-178150D02*
X517920Y-178150D01*
X584586Y-311484D02*
X584586Y-178150D01*
X584586Y-111484D02*
X575063Y-121008D01*
X575063Y-121008D02*
X584586Y-130531D01*
X584586Y-130531D02*
X594110Y-121008D01*
X594110Y-121008D02*
X584586Y-111484D01*
X584586Y-111484D02*
X584586Y-130531D01*
X708396Y-311484D02*
X689348Y-301960D01*
X689348Y-301960D02*
X679824Y-282912D01*
X679824Y-282912D02*
X679824Y-111484D01*
X813158Y-311484D02*
X794110Y-301960D01*
X794110Y-301960D02*
X784586Y-282912D01*
X784586Y-282912D02*
X784586Y-111484D01*
X1041729Y-311484D02*
X1041729Y-111484D01*
X1041729Y-111484D02*
X1108396Y-254341D01*
X1108396Y-254341D02*
X1175063Y-111484D01*
X1175063Y-111484D02*
X1175063Y-311484D01*
X1356015Y-311484D02*
X1356015Y-206722D01*
X1356015Y-206722D02*
X1346491Y-187674D01*
X1346491Y-187674D02*
X1327444Y-178150D01*
X1327444Y-178150D02*
X1289348Y-178150D01*
X1289348Y-178150D02*
X1270301Y-187674D01*
X1356015Y-301960D02*
X1336967Y-311484D01*
X1336967Y-311484D02*
X1289348Y-311484D01*
X1289348Y-311484D02*
X1270301Y-301960D01*
X1270301Y-301960D02*
X1260777Y-282912D01*
X1260777Y-282912D02*
X1260777Y-263865D01*
X1260777Y-263865D02*
X1270301Y-244817D01*
X1270301Y-244817D02*
X1289348Y-235293D01*
X1289348Y-235293D02*
X1336967Y-235293D01*
X1336967Y-235293D02*
X1356015Y-225769D01*
X1451253Y-178150D02*
X1451253Y-378150D01*
X1451253Y-187674D02*
X1470301Y-178150D01*
X1470301Y-178150D02*
X1508396Y-178150D01*
X1508396Y-178150D02*
X1527443Y-187674D01*
X1527443Y-187674D02*
X1536967Y-197198D01*
X1536967Y-197198D02*
X1546491Y-216246D01*
X1546491Y-216246D02*
X1546491Y-273389D01*
X1546491Y-273389D02*
X1536967Y-292436D01*
X1536967Y-292436D02*
X1527443Y-301960D01*
X1527443Y-301960D02*
X1508396Y-311484D01*
X1508396Y-311484D02*
X1470301Y-311484D01*
X1470301Y-311484D02*
X1451253Y-301960D01*
X1632205Y-292436D02*
X1641729Y-301960D01*
X1641729Y-301960D02*
X1632205Y-311484D01*
X1632205Y-311484D02*
X1622682Y-301960D01*
X1622682Y-301960D02*
X1632205Y-292436D01*
X1632205Y-292436D02*
X1632205Y-311484D01*
X1632205Y-187674D02*
X1641729Y-197198D01*
X1641729Y-197198D02*
X1632205Y-206722D01*
X1632205Y-206722D02*
X1622682Y-197198D01*
X1622682Y-197198D02*
X1632205Y-187674D01*
X1632205Y-187674D02*
X1632205Y-206722D01*
D11*
X-170000Y-555000D02*
X0Y-725000D01*
X0Y-555000D02*
X-170000Y-725000D01*
D10*
X365539Y-731484D02*
X251253Y-731484D01*
X308396Y-731484D02*
X308396Y-531484D01*
X308396Y-531484D02*
X289348Y-560055D01*
X289348Y-560055D02*
X270301Y-579103D01*
X270301Y-579103D02*
X251253Y-588627D01*
X451253Y-712436D02*
X460777Y-721960D01*
X460777Y-721960D02*
X451253Y-731484D01*
X451253Y-731484D02*
X441729Y-721960D01*
X441729Y-721960D02*
X451253Y-712436D01*
X451253Y-712436D02*
X451253Y-731484D01*
X527444Y-531484D02*
X660777Y-531484D01*
X660777Y-531484D02*
X575063Y-731484D01*
X775062Y-531484D02*
X794110Y-531484D01*
X794110Y-531484D02*
X813158Y-541008D01*
X813158Y-541008D02*
X822682Y-550531D01*
X822682Y-550531D02*
X832205Y-569579D01*
X832205Y-569579D02*
X841729Y-607674D01*
X841729Y-607674D02*
X841729Y-655293D01*
X841729Y-655293D02*
X832205Y-693389D01*
X832205Y-693389D02*
X822682Y-712436D01*
X822682Y-712436D02*
X813158Y-721960D01*
X813158Y-721960D02*
X794110Y-731484D01*
X794110Y-731484D02*
X775062Y-731484D01*
X775062Y-731484D02*
X756015Y-721960D01*
X756015Y-721960D02*
X746491Y-712436D01*
X746491Y-712436D02*
X736967Y-693389D01*
X736967Y-693389D02*
X727443Y-655293D01*
X727443Y-655293D02*
X727443Y-607674D01*
X727443Y-607674D02*
X736967Y-569579D01*
X736967Y-569579D02*
X746491Y-550531D01*
X746491Y-550531D02*
X756015Y-541008D01*
X756015Y-541008D02*
X775062Y-531484D01*
X965539Y-531484D02*
X984586Y-531484D01*
X984586Y-531484D02*
X1003634Y-541008D01*
X1003634Y-541008D02*
X1013158Y-550531D01*
X1013158Y-550531D02*
X1022682Y-569579D01*
X1022682Y-569579D02*
X1032205Y-607674D01*
X1032205Y-607674D02*
X1032205Y-655293D01*
X1032205Y-655293D02*
X1022682Y-693389D01*
X1022682Y-693389D02*
X1013158Y-712436D01*
X1013158Y-712436D02*
X1003634Y-721960D01*
X1003634Y-721960D02*
X984586Y-731484D01*
X984586Y-731484D02*
X965539Y-731484D01*
X965539Y-731484D02*
X946491Y-721960D01*
X946491Y-721960D02*
X936967Y-712436D01*
X936967Y-712436D02*
X927443Y-693389D01*
X927443Y-693389D02*
X917920Y-655293D01*
X917920Y-655293D02*
X917920Y-607674D01*
X917920Y-607674D02*
X927443Y-569579D01*
X927443Y-569579D02*
X936967Y-550531D01*
X936967Y-550531D02*
X946491Y-541008D01*
X946491Y-541008D02*
X965539Y-531484D01*
X1117920Y-731484D02*
X1117920Y-598150D01*
X1117920Y-617198D02*
X1127444Y-607674D01*
X1127444Y-607674D02*
X1146491Y-598150D01*
X1146491Y-598150D02*
X1175063Y-598150D01*
X1175063Y-598150D02*
X1194110Y-607674D01*
X1194110Y-607674D02*
X1203634Y-626722D01*
X1203634Y-626722D02*
X1203634Y-731484D01*
X1203634Y-626722D02*
X1213158Y-607674D01*
X1213158Y-607674D02*
X1232205Y-598150D01*
X1232205Y-598150D02*
X1260777Y-598150D01*
X1260777Y-598150D02*
X1279825Y-607674D01*
X1279825Y-607674D02*
X1289348Y-626722D01*
X1289348Y-626722D02*
X1289348Y-731484D01*
X1384586Y-731484D02*
X1384586Y-598150D01*
X1384586Y-617198D02*
X1394110Y-607674D01*
X1394110Y-607674D02*
X1413158Y-598150D01*
X1413158Y-598150D02*
X1441729Y-598150D01*
X1441729Y-598150D02*
X1460777Y-607674D01*
X1460777Y-607674D02*
X1470301Y-626722D01*
X1470301Y-626722D02*
X1470301Y-731484D01*
X1470301Y-626722D02*
X1479824Y-607674D01*
X1479824Y-607674D02*
X1498872Y-598150D01*
X1498872Y-598150D02*
X1527443Y-598150D01*
X1527443Y-598150D02*
X1546491Y-607674D01*
X1546491Y-607674D02*
X1556015Y-626722D01*
X1556015Y-626722D02*
X1556015Y-731484D01*
X1946491Y-521960D02*
X1775063Y-779103D01*
X2203634Y-531484D02*
X2222682Y-531484D01*
X2222682Y-531484D02*
X2241729Y-541008D01*
X2241729Y-541008D02*
X2251253Y-550531D01*
X2251253Y-550531D02*
X2260777Y-569579D01*
X2260777Y-569579D02*
X2270301Y-607674D01*
X2270301Y-607674D02*
X2270301Y-655293D01*
X2270301Y-655293D02*
X2260777Y-693389D01*
X2260777Y-693389D02*
X2251253Y-712436D01*
X2251253Y-712436D02*
X2241729Y-721960D01*
X2241729Y-721960D02*
X2222682Y-731484D01*
X2222682Y-731484D02*
X2203634Y-731484D01*
X2203634Y-731484D02*
X2184587Y-721960D01*
X2184587Y-721960D02*
X2175063Y-712436D01*
X2175063Y-712436D02*
X2165539Y-693389D01*
X2165539Y-693389D02*
X2156015Y-655293D01*
X2156015Y-655293D02*
X2156015Y-607674D01*
X2156015Y-607674D02*
X2165539Y-569579D01*
X2165539Y-569579D02*
X2175063Y-550531D01*
X2175063Y-550531D02*
X2184587Y-541008D01*
X2184587Y-541008D02*
X2203634Y-531484D01*
X2356015Y-712436D02*
X2365539Y-721960D01*
X2365539Y-721960D02*
X2356015Y-731484D01*
X2356015Y-731484D02*
X2346491Y-721960D01*
X2346491Y-721960D02*
X2356015Y-712436D01*
X2356015Y-712436D02*
X2356015Y-731484D01*
X2489348Y-531484D02*
X2508396Y-531484D01*
X2508396Y-531484D02*
X2527444Y-541008D01*
X2527444Y-541008D02*
X2536968Y-550531D01*
X2536968Y-550531D02*
X2546491Y-569579D01*
X2546491Y-569579D02*
X2556015Y-607674D01*
X2556015Y-607674D02*
X2556015Y-655293D01*
X2556015Y-655293D02*
X2546491Y-693389D01*
X2546491Y-693389D02*
X2536968Y-712436D01*
X2536968Y-712436D02*
X2527444Y-721960D01*
X2527444Y-721960D02*
X2508396Y-731484D01*
X2508396Y-731484D02*
X2489348Y-731484D01*
X2489348Y-731484D02*
X2470301Y-721960D01*
X2470301Y-721960D02*
X2460777Y-712436D01*
X2460777Y-712436D02*
X2451253Y-693389D01*
X2451253Y-693389D02*
X2441729Y-655293D01*
X2441729Y-655293D02*
X2441729Y-607674D01*
X2441729Y-607674D02*
X2451253Y-569579D01*
X2451253Y-569579D02*
X2460777Y-550531D01*
X2460777Y-550531D02*
X2470301Y-541008D01*
X2470301Y-541008D02*
X2489348Y-531484D01*
X2727444Y-531484D02*
X2689348Y-531484D01*
X2689348Y-531484D02*
X2670301Y-541008D01*
X2670301Y-541008D02*
X2660777Y-550531D01*
X2660777Y-550531D02*
X2641729Y-579103D01*
X2641729Y-579103D02*
X2632206Y-617198D01*
X2632206Y-617198D02*
X2632206Y-693389D01*
X2632206Y-693389D02*
X2641729Y-712436D01*
X2641729Y-712436D02*
X2651253Y-721960D01*
X2651253Y-721960D02*
X2670301Y-731484D01*
X2670301Y-731484D02*
X2708396Y-731484D01*
X2708396Y-731484D02*
X2727444Y-721960D01*
X2727444Y-721960D02*
X2736968Y-712436D01*
X2736968Y-712436D02*
X2746491Y-693389D01*
X2746491Y-693389D02*
X2746491Y-645770D01*
X2746491Y-645770D02*
X2736968Y-626722D01*
X2736968Y-626722D02*
X2727444Y-617198D01*
X2727444Y-617198D02*
X2708396Y-607674D01*
X2708396Y-607674D02*
X2670301Y-607674D01*
X2670301Y-607674D02*
X2651253Y-617198D01*
X2651253Y-617198D02*
X2641729Y-626722D01*
X2641729Y-626722D02*
X2632206Y-645770D01*
X2917920Y-531484D02*
X2879825Y-531484D01*
X2879825Y-531484D02*
X2860777Y-541008D01*
X2860777Y-541008D02*
X2851253Y-550531D01*
X2851253Y-550531D02*
X2832206Y-579103D01*
X2832206Y-579103D02*
X2822682Y-617198D01*
X2822682Y-617198D02*
X2822682Y-693389D01*
X2822682Y-693389D02*
X2832206Y-712436D01*
X2832206Y-712436D02*
X2841729Y-721960D01*
X2841729Y-721960D02*
X2860777Y-731484D01*
X2860777Y-731484D02*
X2898872Y-731484D01*
X2898872Y-731484D02*
X2917920Y-721960D01*
X2917920Y-721960D02*
X2927444Y-712436D01*
X2927444Y-712436D02*
X2936967Y-693389D01*
X2936967Y-693389D02*
X2936967Y-645770D01*
X2936967Y-645770D02*
X2927444Y-626722D01*
X2927444Y-626722D02*
X2917920Y-617198D01*
X2917920Y-617198D02*
X2898872Y-607674D01*
X2898872Y-607674D02*
X2860777Y-607674D01*
X2860777Y-607674D02*
X2841729Y-617198D01*
X2841729Y-617198D02*
X2832206Y-626722D01*
X2832206Y-626722D02*
X2822682Y-645770D01*
X3032206Y-731484D02*
X3070301Y-731484D01*
X3070301Y-731484D02*
X3089348Y-721960D01*
X3089348Y-721960D02*
X3098872Y-712436D01*
X3098872Y-712436D02*
X3117920Y-683865D01*
X3117920Y-683865D02*
X3127444Y-645770D01*
X3127444Y-645770D02*
X3127444Y-569579D01*
X3127444Y-569579D02*
X3117920Y-550531D01*
X3117920Y-550531D02*
X3108396Y-541008D01*
X3108396Y-541008D02*
X3089348Y-531484D01*
X3089348Y-531484D02*
X3051253Y-531484D01*
X3051253Y-531484D02*
X3032206Y-541008D01*
X3032206Y-541008D02*
X3022682Y-550531D01*
X3022682Y-550531D02*
X3013158Y-569579D01*
X3013158Y-569579D02*
X3013158Y-617198D01*
X3013158Y-617198D02*
X3022682Y-636246D01*
X3022682Y-636246D02*
X3032206Y-645770D01*
X3032206Y-645770D02*
X3051253Y-655293D01*
X3051253Y-655293D02*
X3089348Y-655293D01*
X3089348Y-655293D02*
X3108396Y-645770D01*
X3108396Y-645770D02*
X3117920Y-636246D01*
X3117920Y-636246D02*
X3127444Y-617198D01*
X3203634Y-531484D02*
X3203634Y-569579D01*
X3279825Y-531484D02*
X3279825Y-569579D01*
X3575063Y-807674D02*
X3565539Y-798150D01*
X3565539Y-798150D02*
X3546491Y-769579D01*
X3546491Y-769579D02*
X3536968Y-750531D01*
X3536968Y-750531D02*
X3527444Y-721960D01*
X3527444Y-721960D02*
X3517920Y-674341D01*
X3517920Y-674341D02*
X3517920Y-636246D01*
X3517920Y-636246D02*
X3527444Y-588627D01*
X3527444Y-588627D02*
X3536968Y-560055D01*
X3536968Y-560055D02*
X3546491Y-541008D01*
X3546491Y-541008D02*
X3565539Y-512436D01*
X3565539Y-512436D02*
X3575063Y-502912D01*
X3641729Y-550531D02*
X3651253Y-541008D01*
X3651253Y-541008D02*
X3670301Y-531484D01*
X3670301Y-531484D02*
X3717920Y-531484D01*
X3717920Y-531484D02*
X3736968Y-541008D01*
X3736968Y-541008D02*
X3746491Y-550531D01*
X3746491Y-550531D02*
X3756015Y-569579D01*
X3756015Y-569579D02*
X3756015Y-588627D01*
X3756015Y-588627D02*
X3746491Y-617198D01*
X3746491Y-617198D02*
X3632206Y-731484D01*
X3632206Y-731484D02*
X3756015Y-731484D01*
X3994110Y-731484D02*
X3994110Y-531484D01*
X4079825Y-731484D02*
X4079825Y-626722D01*
X4079825Y-626722D02*
X4070301Y-607674D01*
X4070301Y-607674D02*
X4051253Y-598150D01*
X4051253Y-598150D02*
X4022682Y-598150D01*
X4022682Y-598150D02*
X4003634Y-607674D01*
X4003634Y-607674D02*
X3994110Y-617198D01*
X4203634Y-731484D02*
X4184587Y-721960D01*
X4184587Y-721960D02*
X4175063Y-712436D01*
X4175063Y-712436D02*
X4165539Y-693389D01*
X4165539Y-693389D02*
X4165539Y-636246D01*
X4165539Y-636246D02*
X4175063Y-617198D01*
X4175063Y-617198D02*
X4184587Y-607674D01*
X4184587Y-607674D02*
X4203634Y-598150D01*
X4203634Y-598150D02*
X4232206Y-598150D01*
X4232206Y-598150D02*
X4251253Y-607674D01*
X4251253Y-607674D02*
X4260777Y-617198D01*
X4260777Y-617198D02*
X4270301Y-636246D01*
X4270301Y-636246D02*
X4270301Y-693389D01*
X4270301Y-693389D02*
X4260777Y-712436D01*
X4260777Y-712436D02*
X4251253Y-721960D01*
X4251253Y-721960D02*
X4232206Y-731484D01*
X4232206Y-731484D02*
X4203634Y-731484D01*
X4384587Y-731484D02*
X4365539Y-721960D01*
X4365539Y-721960D02*
X4356015Y-702912D01*
X4356015Y-702912D02*
X4356015Y-531484D01*
X4536968Y-721960D02*
X4517920Y-731484D01*
X4517920Y-731484D02*
X4479825Y-731484D01*
X4479825Y-731484D02*
X4460777Y-721960D01*
X4460777Y-721960D02*
X4451253Y-702912D01*
X4451253Y-702912D02*
X4451253Y-626722D01*
X4451253Y-626722D02*
X4460777Y-607674D01*
X4460777Y-607674D02*
X4479825Y-598150D01*
X4479825Y-598150D02*
X4517920Y-598150D01*
X4517920Y-598150D02*
X4536968Y-607674D01*
X4536968Y-607674D02*
X4546492Y-626722D01*
X4546492Y-626722D02*
X4546492Y-645770D01*
X4546492Y-645770D02*
X4451253Y-664817D01*
X4622682Y-721960D02*
X4641730Y-731484D01*
X4641730Y-731484D02*
X4679825Y-731484D01*
X4679825Y-731484D02*
X4698873Y-721960D01*
X4698873Y-721960D02*
X4708396Y-702912D01*
X4708396Y-702912D02*
X4708396Y-693389D01*
X4708396Y-693389D02*
X4698873Y-674341D01*
X4698873Y-674341D02*
X4679825Y-664817D01*
X4679825Y-664817D02*
X4651253Y-664817D01*
X4651253Y-664817D02*
X4632206Y-655293D01*
X4632206Y-655293D02*
X4622682Y-636246D01*
X4622682Y-636246D02*
X4622682Y-626722D01*
X4622682Y-626722D02*
X4632206Y-607674D01*
X4632206Y-607674D02*
X4651253Y-598150D01*
X4651253Y-598150D02*
X4679825Y-598150D01*
X4679825Y-598150D02*
X4698873Y-607674D01*
X4775063Y-807674D02*
X4784587Y-798150D01*
X4784587Y-798150D02*
X4803634Y-769579D01*
X4803634Y-769579D02*
X4813158Y-750531D01*
X4813158Y-750531D02*
X4822682Y-721960D01*
X4822682Y-721960D02*
X4832206Y-674341D01*
X4832206Y-674341D02*
X4832206Y-636246D01*
X4832206Y-636246D02*
X4822682Y-588627D01*
X4822682Y-588627D02*
X4813158Y-560055D01*
X4813158Y-560055D02*
X4803634Y-541008D01*
X4803634Y-541008D02*
X4784587Y-512436D01*
X4784587Y-512436D02*
X4775063Y-502912D01*
X5136968Y-807674D02*
X5127444Y-798150D01*
X5127444Y-798150D02*
X5108396Y-769579D01*
X5108396Y-769579D02*
X5098873Y-750531D01*
X5098873Y-750531D02*
X5089349Y-721960D01*
X5089349Y-721960D02*
X5079825Y-674341D01*
X5079825Y-674341D02*
X5079825Y-636246D01*
X5079825Y-636246D02*
X5089349Y-588627D01*
X5089349Y-588627D02*
X5098873Y-560055D01*
X5098873Y-560055D02*
X5108396Y-541008D01*
X5108396Y-541008D02*
X5127444Y-512436D01*
X5127444Y-512436D02*
X5136968Y-502912D01*
X5213158Y-598150D02*
X5213158Y-731484D01*
X5213158Y-617198D02*
X5222682Y-607674D01*
X5222682Y-607674D02*
X5241730Y-598150D01*
X5241730Y-598150D02*
X5270301Y-598150D01*
X5270301Y-598150D02*
X5289349Y-607674D01*
X5289349Y-607674D02*
X5298873Y-626722D01*
X5298873Y-626722D02*
X5298873Y-731484D01*
X5422682Y-731484D02*
X5403634Y-721960D01*
X5403634Y-721960D02*
X5394111Y-712436D01*
X5394111Y-712436D02*
X5384587Y-693389D01*
X5384587Y-693389D02*
X5384587Y-636246D01*
X5384587Y-636246D02*
X5394111Y-617198D01*
X5394111Y-617198D02*
X5403634Y-607674D01*
X5403634Y-607674D02*
X5422682Y-598150D01*
X5422682Y-598150D02*
X5451254Y-598150D01*
X5451254Y-598150D02*
X5470301Y-607674D01*
X5470301Y-607674D02*
X5479825Y-617198D01*
X5479825Y-617198D02*
X5489349Y-636246D01*
X5489349Y-636246D02*
X5489349Y-693389D01*
X5489349Y-693389D02*
X5479825Y-712436D01*
X5479825Y-712436D02*
X5470301Y-721960D01*
X5470301Y-721960D02*
X5451254Y-731484D01*
X5451254Y-731484D02*
X5422682Y-731484D01*
X5546492Y-598150D02*
X5622682Y-598150D01*
X5575063Y-531484D02*
X5575063Y-702912D01*
X5575063Y-702912D02*
X5584587Y-721960D01*
X5584587Y-721960D02*
X5603634Y-731484D01*
X5603634Y-731484D02*
X5622682Y-731484D01*
X5841730Y-598150D02*
X5841730Y-798150D01*
X5841730Y-607674D02*
X5860777Y-598150D01*
X5860777Y-598150D02*
X5898873Y-598150D01*
X5898873Y-598150D02*
X5917920Y-607674D01*
X5917920Y-607674D02*
X5927444Y-617198D01*
X5927444Y-617198D02*
X5936968Y-636246D01*
X5936968Y-636246D02*
X5936968Y-693389D01*
X5936968Y-693389D02*
X5927444Y-712436D01*
X5927444Y-712436D02*
X5917920Y-721960D01*
X5917920Y-721960D02*
X5898873Y-731484D01*
X5898873Y-731484D02*
X5860777Y-731484D01*
X5860777Y-731484D02*
X5841730Y-721960D01*
X6051253Y-731484D02*
X6032206Y-721960D01*
X6032206Y-721960D02*
X6022682Y-702912D01*
X6022682Y-702912D02*
X6022682Y-531484D01*
X6213158Y-731484D02*
X6213158Y-626722D01*
X6213158Y-626722D02*
X6203634Y-607674D01*
X6203634Y-607674D02*
X6184587Y-598150D01*
X6184587Y-598150D02*
X6146492Y-598150D01*
X6146492Y-598150D02*
X6127444Y-607674D01*
X6213158Y-721960D02*
X6194111Y-731484D01*
X6194111Y-731484D02*
X6146492Y-731484D01*
X6146492Y-731484D02*
X6127444Y-721960D01*
X6127444Y-721960D02*
X6117920Y-702912D01*
X6117920Y-702912D02*
X6117920Y-683865D01*
X6117920Y-683865D02*
X6127444Y-664817D01*
X6127444Y-664817D02*
X6146492Y-655293D01*
X6146492Y-655293D02*
X6194111Y-655293D01*
X6194111Y-655293D02*
X6213158Y-645770D01*
X6279825Y-598150D02*
X6356015Y-598150D01*
X6308396Y-531484D02*
X6308396Y-702912D01*
X6308396Y-702912D02*
X6317920Y-721960D01*
X6317920Y-721960D02*
X6336968Y-731484D01*
X6336968Y-731484D02*
X6356015Y-731484D01*
X6498873Y-721960D02*
X6479825Y-731484D01*
X6479825Y-731484D02*
X6441730Y-731484D01*
X6441730Y-731484D02*
X6422682Y-721960D01*
X6422682Y-721960D02*
X6413158Y-702912D01*
X6413158Y-702912D02*
X6413158Y-626722D01*
X6413158Y-626722D02*
X6422682Y-607674D01*
X6422682Y-607674D02*
X6441730Y-598150D01*
X6441730Y-598150D02*
X6479825Y-598150D01*
X6479825Y-598150D02*
X6498873Y-607674D01*
X6498873Y-607674D02*
X6508396Y-626722D01*
X6508396Y-626722D02*
X6508396Y-645770D01*
X6508396Y-645770D02*
X6413158Y-664817D01*
X6679825Y-731484D02*
X6679825Y-531484D01*
X6679825Y-721960D02*
X6660777Y-731484D01*
X6660777Y-731484D02*
X6622682Y-731484D01*
X6622682Y-731484D02*
X6603634Y-721960D01*
X6603634Y-721960D02*
X6594111Y-712436D01*
X6594111Y-712436D02*
X6584587Y-693389D01*
X6584587Y-693389D02*
X6584587Y-636246D01*
X6584587Y-636246D02*
X6594111Y-617198D01*
X6594111Y-617198D02*
X6603634Y-607674D01*
X6603634Y-607674D02*
X6622682Y-598150D01*
X6622682Y-598150D02*
X6660777Y-598150D01*
X6660777Y-598150D02*
X6679825Y-607674D01*
X6756015Y-807674D02*
X6765539Y-798150D01*
X6765539Y-798150D02*
X6784587Y-769579D01*
X6784587Y-769579D02*
X6794111Y-750531D01*
X6794111Y-750531D02*
X6803634Y-721960D01*
X6803634Y-721960D02*
X6813158Y-674341D01*
X6813158Y-674341D02*
X6813158Y-636246D01*
X6813158Y-636246D02*
X6803634Y-588627D01*
X6803634Y-588627D02*
X6794111Y-560055D01*
X6794111Y-560055D02*
X6784587Y-541008D01*
X6784587Y-541008D02*
X6765539Y-512436D01*
X6765539Y-512436D02*
X6756015Y-502912D01*
X0Y-930000D02*
G75*
G02*
X-200000Y-930000I-100000J0D01*
G01*
X-200000Y-930000D02*
G75*
G02*
X0Y-930000I100000J0D01*
G01*
X346491Y-888150D02*
X346491Y-1021484D01*
X298872Y-811960D02*
X251253Y-954817D01*
X251253Y-954817D02*
X375062Y-954817D01*
X451253Y-1002436D02*
X460777Y-1011960D01*
X460777Y-1011960D02*
X451253Y-1021484D01*
X451253Y-1021484D02*
X441729Y-1011960D01*
X441729Y-1011960D02*
X451253Y-1002436D01*
X451253Y-1002436D02*
X451253Y-1021484D01*
X584586Y-821484D02*
X603634Y-821484D01*
X603634Y-821484D02*
X622682Y-831008D01*
X622682Y-831008D02*
X632205Y-840531D01*
X632205Y-840531D02*
X641729Y-859579D01*
X641729Y-859579D02*
X651253Y-897674D01*
X651253Y-897674D02*
X651253Y-945293D01*
X651253Y-945293D02*
X641729Y-983388D01*
X641729Y-983388D02*
X632205Y-1002436D01*
X632205Y-1002436D02*
X622682Y-1011960D01*
X622682Y-1011960D02*
X603634Y-1021484D01*
X603634Y-1021484D02*
X584586Y-1021484D01*
X584586Y-1021484D02*
X565539Y-1011960D01*
X565539Y-1011960D02*
X556015Y-1002436D01*
X556015Y-1002436D02*
X546491Y-983388D01*
X546491Y-983388D02*
X536967Y-945293D01*
X536967Y-945293D02*
X536967Y-897674D01*
X536967Y-897674D02*
X546491Y-859579D01*
X546491Y-859579D02*
X556015Y-840531D01*
X556015Y-840531D02*
X565539Y-831008D01*
X565539Y-831008D02*
X584586Y-821484D01*
X775062Y-821484D02*
X794110Y-821484D01*
X794110Y-821484D02*
X813158Y-831008D01*
X813158Y-831008D02*
X822682Y-840531D01*
X822682Y-840531D02*
X832205Y-859579D01*
X832205Y-859579D02*
X841729Y-897674D01*
X841729Y-897674D02*
X841729Y-945293D01*
X841729Y-945293D02*
X832205Y-983388D01*
X832205Y-983388D02*
X822682Y-1002436D01*
X822682Y-1002436D02*
X813158Y-1011960D01*
X813158Y-1011960D02*
X794110Y-1021484D01*
X794110Y-1021484D02*
X775062Y-1021484D01*
X775062Y-1021484D02*
X756015Y-1011960D01*
X756015Y-1011960D02*
X746491Y-1002436D01*
X746491Y-1002436D02*
X736967Y-983388D01*
X736967Y-983388D02*
X727443Y-945293D01*
X727443Y-945293D02*
X727443Y-897674D01*
X727443Y-897674D02*
X736967Y-859579D01*
X736967Y-859579D02*
X746491Y-840531D01*
X746491Y-840531D02*
X756015Y-831008D01*
X756015Y-831008D02*
X775062Y-821484D01*
X965539Y-821484D02*
X984586Y-821484D01*
X984586Y-821484D02*
X1003634Y-831008D01*
X1003634Y-831008D02*
X1013158Y-840531D01*
X1013158Y-840531D02*
X1022682Y-859579D01*
X1022682Y-859579D02*
X1032205Y-897674D01*
X1032205Y-897674D02*
X1032205Y-945293D01*
X1032205Y-945293D02*
X1022682Y-983388D01*
X1022682Y-983388D02*
X1013158Y-1002436D01*
X1013158Y-1002436D02*
X1003634Y-1011960D01*
X1003634Y-1011960D02*
X984586Y-1021484D01*
X984586Y-1021484D02*
X965539Y-1021484D01*
X965539Y-1021484D02*
X946491Y-1011960D01*
X946491Y-1011960D02*
X936967Y-1002436D01*
X936967Y-1002436D02*
X927443Y-983388D01*
X927443Y-983388D02*
X917920Y-945293D01*
X917920Y-945293D02*
X917920Y-897674D01*
X917920Y-897674D02*
X927443Y-859579D01*
X927443Y-859579D02*
X936967Y-840531D01*
X936967Y-840531D02*
X946491Y-831008D01*
X946491Y-831008D02*
X965539Y-821484D01*
X1117920Y-1021484D02*
X1117920Y-888150D01*
X1117920Y-907198D02*
X1127444Y-897674D01*
X1127444Y-897674D02*
X1146491Y-888150D01*
X1146491Y-888150D02*
X1175063Y-888150D01*
X1175063Y-888150D02*
X1194110Y-897674D01*
X1194110Y-897674D02*
X1203634Y-916722D01*
X1203634Y-916722D02*
X1203634Y-1021484D01*
X1203634Y-916722D02*
X1213158Y-897674D01*
X1213158Y-897674D02*
X1232205Y-888150D01*
X1232205Y-888150D02*
X1260777Y-888150D01*
X1260777Y-888150D02*
X1279825Y-897674D01*
X1279825Y-897674D02*
X1289348Y-916722D01*
X1289348Y-916722D02*
X1289348Y-1021484D01*
X1384586Y-1021484D02*
X1384586Y-888150D01*
X1384586Y-907198D02*
X1394110Y-897674D01*
X1394110Y-897674D02*
X1413158Y-888150D01*
X1413158Y-888150D02*
X1441729Y-888150D01*
X1441729Y-888150D02*
X1460777Y-897674D01*
X1460777Y-897674D02*
X1470301Y-916722D01*
X1470301Y-916722D02*
X1470301Y-1021484D01*
X1470301Y-916722D02*
X1479824Y-897674D01*
X1479824Y-897674D02*
X1498872Y-888150D01*
X1498872Y-888150D02*
X1527443Y-888150D01*
X1527443Y-888150D02*
X1546491Y-897674D01*
X1546491Y-897674D02*
X1556015Y-916722D01*
X1556015Y-916722D02*
X1556015Y-1021484D01*
X1946491Y-811960D02*
X1775063Y-1069103D01*
X2203634Y-821484D02*
X2222682Y-821484D01*
X2222682Y-821484D02*
X2241729Y-831008D01*
X2241729Y-831008D02*
X2251253Y-840531D01*
X2251253Y-840531D02*
X2260777Y-859579D01*
X2260777Y-859579D02*
X2270301Y-897674D01*
X2270301Y-897674D02*
X2270301Y-945293D01*
X2270301Y-945293D02*
X2260777Y-983388D01*
X2260777Y-983388D02*
X2251253Y-1002436D01*
X2251253Y-1002436D02*
X2241729Y-1011960D01*
X2241729Y-1011960D02*
X2222682Y-1021484D01*
X2222682Y-1021484D02*
X2203634Y-1021484D01*
X2203634Y-1021484D02*
X2184587Y-1011960D01*
X2184587Y-1011960D02*
X2175063Y-1002436D01*
X2175063Y-1002436D02*
X2165539Y-983388D01*
X2165539Y-983388D02*
X2156015Y-945293D01*
X2156015Y-945293D02*
X2156015Y-897674D01*
X2156015Y-897674D02*
X2165539Y-859579D01*
X2165539Y-859579D02*
X2175063Y-840531D01*
X2175063Y-840531D02*
X2184587Y-831008D01*
X2184587Y-831008D02*
X2203634Y-821484D01*
X2356015Y-1002436D02*
X2365539Y-1011960D01*
X2365539Y-1011960D02*
X2356015Y-1021484D01*
X2356015Y-1021484D02*
X2346491Y-1011960D01*
X2346491Y-1011960D02*
X2356015Y-1002436D01*
X2356015Y-1002436D02*
X2356015Y-1021484D01*
X2556015Y-1021484D02*
X2441729Y-1021484D01*
X2498872Y-1021484D02*
X2498872Y-821484D01*
X2498872Y-821484D02*
X2479825Y-850055D01*
X2479825Y-850055D02*
X2460777Y-869103D01*
X2460777Y-869103D02*
X2441729Y-878627D01*
X2736968Y-821484D02*
X2641729Y-821484D01*
X2641729Y-821484D02*
X2632206Y-916722D01*
X2632206Y-916722D02*
X2641729Y-907198D01*
X2641729Y-907198D02*
X2660777Y-897674D01*
X2660777Y-897674D02*
X2708396Y-897674D01*
X2708396Y-897674D02*
X2727444Y-907198D01*
X2727444Y-907198D02*
X2736968Y-916722D01*
X2736968Y-916722D02*
X2746491Y-935769D01*
X2746491Y-935769D02*
X2746491Y-983388D01*
X2746491Y-983388D02*
X2736968Y-1002436D01*
X2736968Y-1002436D02*
X2727444Y-1011960D01*
X2727444Y-1011960D02*
X2708396Y-1021484D01*
X2708396Y-1021484D02*
X2660777Y-1021484D01*
X2660777Y-1021484D02*
X2641729Y-1011960D01*
X2641729Y-1011960D02*
X2632206Y-1002436D01*
X2813158Y-821484D02*
X2946491Y-821484D01*
X2946491Y-821484D02*
X2860777Y-1021484D01*
X3117920Y-821484D02*
X3022682Y-821484D01*
X3022682Y-821484D02*
X3013158Y-916722D01*
X3013158Y-916722D02*
X3022682Y-907198D01*
X3022682Y-907198D02*
X3041729Y-897674D01*
X3041729Y-897674D02*
X3089348Y-897674D01*
X3089348Y-897674D02*
X3108396Y-907198D01*
X3108396Y-907198D02*
X3117920Y-916722D01*
X3117920Y-916722D02*
X3127444Y-935769D01*
X3127444Y-935769D02*
X3127444Y-983388D01*
X3127444Y-983388D02*
X3117920Y-1002436D01*
X3117920Y-1002436D02*
X3108396Y-1011960D01*
X3108396Y-1011960D02*
X3089348Y-1021484D01*
X3089348Y-1021484D02*
X3041729Y-1021484D01*
X3041729Y-1021484D02*
X3022682Y-1011960D01*
X3022682Y-1011960D02*
X3013158Y-1002436D01*
X3203634Y-821484D02*
X3203634Y-859579D01*
X3279825Y-821484D02*
X3279825Y-859579D01*
X3575063Y-1097674D02*
X3565539Y-1088150D01*
X3565539Y-1088150D02*
X3546491Y-1059579D01*
X3546491Y-1059579D02*
X3536968Y-1040531D01*
X3536968Y-1040531D02*
X3527444Y-1011960D01*
X3527444Y-1011960D02*
X3517920Y-964341D01*
X3517920Y-964341D02*
X3517920Y-926246D01*
X3517920Y-926246D02*
X3527444Y-878627D01*
X3527444Y-878627D02*
X3536968Y-850055D01*
X3536968Y-850055D02*
X3546491Y-831008D01*
X3546491Y-831008D02*
X3565539Y-802436D01*
X3565539Y-802436D02*
X3575063Y-792912D01*
X3756015Y-1021484D02*
X3641729Y-1021484D01*
X3698872Y-1021484D02*
X3698872Y-821484D01*
X3698872Y-821484D02*
X3679825Y-850055D01*
X3679825Y-850055D02*
X3660777Y-869103D01*
X3660777Y-869103D02*
X3641729Y-878627D01*
X3994110Y-1021484D02*
X3994110Y-821484D01*
X4079825Y-1021484D02*
X4079825Y-916722D01*
X4079825Y-916722D02*
X4070301Y-897674D01*
X4070301Y-897674D02*
X4051253Y-888150D01*
X4051253Y-888150D02*
X4022682Y-888150D01*
X4022682Y-888150D02*
X4003634Y-897674D01*
X4003634Y-897674D02*
X3994110Y-907198D01*
X4203634Y-1021484D02*
X4184587Y-1011960D01*
X4184587Y-1011960D02*
X4175063Y-1002436D01*
X4175063Y-1002436D02*
X4165539Y-983388D01*
X4165539Y-983388D02*
X4165539Y-926246D01*
X4165539Y-926246D02*
X4175063Y-907198D01*
X4175063Y-907198D02*
X4184587Y-897674D01*
X4184587Y-897674D02*
X4203634Y-888150D01*
X4203634Y-888150D02*
X4232206Y-888150D01*
X4232206Y-888150D02*
X4251253Y-897674D01*
X4251253Y-897674D02*
X4260777Y-907198D01*
X4260777Y-907198D02*
X4270301Y-926246D01*
X4270301Y-926246D02*
X4270301Y-983388D01*
X4270301Y-983388D02*
X4260777Y-1002436D01*
X4260777Y-1002436D02*
X4251253Y-1011960D01*
X4251253Y-1011960D02*
X4232206Y-1021484D01*
X4232206Y-1021484D02*
X4203634Y-1021484D01*
X4384587Y-1021484D02*
X4365539Y-1011960D01*
X4365539Y-1011960D02*
X4356015Y-992912D01*
X4356015Y-992912D02*
X4356015Y-821484D01*
X4536968Y-1011960D02*
X4517920Y-1021484D01*
X4517920Y-1021484D02*
X4479825Y-1021484D01*
X4479825Y-1021484D02*
X4460777Y-1011960D01*
X4460777Y-1011960D02*
X4451253Y-992912D01*
X4451253Y-992912D02*
X4451253Y-916722D01*
X4451253Y-916722D02*
X4460777Y-897674D01*
X4460777Y-897674D02*
X4479825Y-888150D01*
X4479825Y-888150D02*
X4517920Y-888150D01*
X4517920Y-888150D02*
X4536968Y-897674D01*
X4536968Y-897674D02*
X4546492Y-916722D01*
X4546492Y-916722D02*
X4546492Y-935769D01*
X4546492Y-935769D02*
X4451253Y-954817D01*
X4613158Y-1097674D02*
X4622682Y-1088150D01*
X4622682Y-1088150D02*
X4641730Y-1059579D01*
X4641730Y-1059579D02*
X4651253Y-1040531D01*
X4651253Y-1040531D02*
X4660777Y-1011960D01*
X4660777Y-1011960D02*
X4670301Y-964341D01*
X4670301Y-964341D02*
X4670301Y-926246D01*
X4670301Y-926246D02*
X4660777Y-878627D01*
X4660777Y-878627D02*
X4651253Y-850055D01*
X4651253Y-850055D02*
X4641730Y-831008D01*
X4641730Y-831008D02*
X4622682Y-802436D01*
X4622682Y-802436D02*
X4613158Y-792912D01*
X4975063Y-1097674D02*
X4965539Y-1088150D01*
X4965539Y-1088150D02*
X4946492Y-1059579D01*
X4946492Y-1059579D02*
X4936968Y-1040531D01*
X4936968Y-1040531D02*
X4927444Y-1011960D01*
X4927444Y-1011960D02*
X4917920Y-964341D01*
X4917920Y-964341D02*
X4917920Y-926246D01*
X4917920Y-926246D02*
X4927444Y-878627D01*
X4927444Y-878627D02*
X4936968Y-850055D01*
X4936968Y-850055D02*
X4946492Y-831008D01*
X4946492Y-831008D02*
X4965539Y-802436D01*
X4965539Y-802436D02*
X4975063Y-792912D01*
X5051253Y-888150D02*
X5051253Y-1021484D01*
X5051253Y-907198D02*
X5060777Y-897674D01*
X5060777Y-897674D02*
X5079825Y-888150D01*
X5079825Y-888150D02*
X5108396Y-888150D01*
X5108396Y-888150D02*
X5127444Y-897674D01*
X5127444Y-897674D02*
X5136968Y-916722D01*
X5136968Y-916722D02*
X5136968Y-1021484D01*
X5260777Y-1021484D02*
X5241730Y-1011960D01*
X5241730Y-1011960D02*
X5232206Y-1002436D01*
X5232206Y-1002436D02*
X5222682Y-983388D01*
X5222682Y-983388D02*
X5222682Y-926246D01*
X5222682Y-926246D02*
X5232206Y-907198D01*
X5232206Y-907198D02*
X5241730Y-897674D01*
X5241730Y-897674D02*
X5260777Y-888150D01*
X5260777Y-888150D02*
X5289349Y-888150D01*
X5289349Y-888150D02*
X5308396Y-897674D01*
X5308396Y-897674D02*
X5317920Y-907198D01*
X5317920Y-907198D02*
X5327444Y-926246D01*
X5327444Y-926246D02*
X5327444Y-983388D01*
X5327444Y-983388D02*
X5317920Y-1002436D01*
X5317920Y-1002436D02*
X5308396Y-1011960D01*
X5308396Y-1011960D02*
X5289349Y-1021484D01*
X5289349Y-1021484D02*
X5260777Y-1021484D01*
X5384587Y-888150D02*
X5460777Y-888150D01*
X5413158Y-821484D02*
X5413158Y-992912D01*
X5413158Y-992912D02*
X5422682Y-1011960D01*
X5422682Y-1011960D02*
X5441730Y-1021484D01*
X5441730Y-1021484D02*
X5460777Y-1021484D01*
X5679825Y-888150D02*
X5679825Y-1088150D01*
X5679825Y-897674D02*
X5698872Y-888150D01*
X5698872Y-888150D02*
X5736968Y-888150D01*
X5736968Y-888150D02*
X5756015Y-897674D01*
X5756015Y-897674D02*
X5765539Y-907198D01*
X5765539Y-907198D02*
X5775063Y-926246D01*
X5775063Y-926246D02*
X5775063Y-983388D01*
X5775063Y-983388D02*
X5765539Y-1002436D01*
X5765539Y-1002436D02*
X5756015Y-1011960D01*
X5756015Y-1011960D02*
X5736968Y-1021484D01*
X5736968Y-1021484D02*
X5698872Y-1021484D01*
X5698872Y-1021484D02*
X5679825Y-1011960D01*
X5889349Y-1021484D02*
X5870301Y-1011960D01*
X5870301Y-1011960D02*
X5860777Y-992912D01*
X5860777Y-992912D02*
X5860777Y-821484D01*
X6051253Y-1021484D02*
X6051253Y-916722D01*
X6051253Y-916722D02*
X6041730Y-897674D01*
X6041730Y-897674D02*
X6022682Y-888150D01*
X6022682Y-888150D02*
X5984587Y-888150D01*
X5984587Y-888150D02*
X5965539Y-897674D01*
X6051253Y-1011960D02*
X6032206Y-1021484D01*
X6032206Y-1021484D02*
X5984587Y-1021484D01*
X5984587Y-1021484D02*
X5965539Y-1011960D01*
X5965539Y-1011960D02*
X5956015Y-992912D01*
X5956015Y-992912D02*
X5956015Y-973865D01*
X5956015Y-973865D02*
X5965539Y-954817D01*
X5965539Y-954817D02*
X5984587Y-945293D01*
X5984587Y-945293D02*
X6032206Y-945293D01*
X6032206Y-945293D02*
X6051253Y-935769D01*
X6117920Y-888150D02*
X6194111Y-888150D01*
X6146492Y-821484D02*
X6146492Y-992912D01*
X6146492Y-992912D02*
X6156015Y-1011960D01*
X6156015Y-1011960D02*
X6175063Y-1021484D01*
X6175063Y-1021484D02*
X6194111Y-1021484D01*
X6336968Y-1011960D02*
X6317920Y-1021484D01*
X6317920Y-1021484D02*
X6279825Y-1021484D01*
X6279825Y-1021484D02*
X6260777Y-1011960D01*
X6260777Y-1011960D02*
X6251253Y-992912D01*
X6251253Y-992912D02*
X6251253Y-916722D01*
X6251253Y-916722D02*
X6260777Y-897674D01*
X6260777Y-897674D02*
X6279825Y-888150D01*
X6279825Y-888150D02*
X6317920Y-888150D01*
X6317920Y-888150D02*
X6336968Y-897674D01*
X6336968Y-897674D02*
X6346492Y-916722D01*
X6346492Y-916722D02*
X6346492Y-935769D01*
X6346492Y-935769D02*
X6251253Y-954817D01*
X6517920Y-1021484D02*
X6517920Y-821484D01*
X6517920Y-1011960D02*
X6498873Y-1021484D01*
X6498873Y-1021484D02*
X6460777Y-1021484D01*
X6460777Y-1021484D02*
X6441730Y-1011960D01*
X6441730Y-1011960D02*
X6432206Y-1002436D01*
X6432206Y-1002436D02*
X6422682Y-983388D01*
X6422682Y-983388D02*
X6422682Y-926246D01*
X6422682Y-926246D02*
X6432206Y-907198D01*
X6432206Y-907198D02*
X6441730Y-897674D01*
X6441730Y-897674D02*
X6460777Y-888150D01*
X6460777Y-888150D02*
X6498873Y-888150D01*
X6498873Y-888150D02*
X6517920Y-897674D01*
X6594111Y-1097674D02*
X6603634Y-1088150D01*
X6603634Y-1088150D02*
X6622682Y-1059579D01*
X6622682Y-1059579D02*
X6632206Y-1040531D01*
X6632206Y-1040531D02*
X6641730Y-1011960D01*
X6641730Y-1011960D02*
X6651253Y-964341D01*
X6651253Y-964341D02*
X6651253Y-926246D01*
X6651253Y-926246D02*
X6641730Y-878627D01*
X6641730Y-878627D02*
X6632206Y-850055D01*
X6632206Y-850055D02*
X6622682Y-831008D01*
X6622682Y-831008D02*
X6603634Y-802436D01*
X6603634Y-802436D02*
X6594111Y-792912D01*
M02*
